<svg width="73" height="80" viewBox="0 0 73 80" fill="none" xmlns="http://www.w3.org/2000/svg">
<g clip-path="url(#clip0_45_921)">
<path d="M51.861 23.3628C50.7873 23.3602 49.9066 22.51 49.8667 21.4369L49.2331 4.36987C49.1663 2.57027 51.3258 1.60534 52.6212 2.85624L70.335 19.9622C71.6299 21.2132 70.7412 23.4051 68.9405 23.4011L51.861 23.3628Z" stroke="#D9D9D9" stroke-width="4"/>
<path d="M55.4805 4.26849H20C16.134 4.26849 13 7.4025 13 11.2685V69.2685C13 73.1345 16.134 76.2685 20 76.2685H62C65.866 76.2685 69 73.1345 69 69.2685V17.5038L73 21.4199V69.2685C73 75.3436 68.0751 80.2685 62 80.2685H20L19.4336 80.2538C13.8093 79.9686 9.29993 75.4592 9.01465 69.8349L9 69.2685V11.2685C9 5.19336 13.9249 0.268494 20 0.268494H51.3945L55.4805 4.26849Z" fill="#D9D9D9"/>
<rect y="35.2684" width="58" height="32" rx="9" fill="#6E6E6E"/>
<path d="M18.456 42.4204V45.7084H11.592V49.2604H16.728V52.4524H11.592V59.2684H7.488V42.4204H18.456ZM24.717 42.4204V59.2684H20.613V42.4204H24.717ZM31.7951 56.1004H37.1711V59.2684H27.6911V42.4204H31.7951V56.1004ZM43.2326 45.7084V49.1164H48.7286V52.2844H43.2326V55.9804H49.4486V59.2684H39.1286V42.4204H49.4486V45.7084H43.2326Z" fill="white"/>
</g>
<defs>
<clipPath id="clip0_45_921">
<rect width="73" height="80" fill="white"/>
</clipPath>
</defs>
</svg>
