<svg width="73" height="80" viewBox="0 0 73 80" fill="none" xmlns="http://www.w3.org/2000/svg">
<g clip-path="url(#clip0_14_51)">
<path d="M51.8613 23.3628C50.7876 23.3602 49.9068 22.51 49.8669 21.4369L49.2334 4.36987C49.1665 2.57027 51.3261 1.60534 52.6215 2.85624L70.3352 19.9622C71.6302 21.2132 70.7415 23.4051 68.9408 23.4011L51.8613 23.3628Z" stroke="#D9D9D9" stroke-width="4"/>
<path d="M55.4805 4.26849H20C16.134 4.26849 13 7.4025 13 11.2685V69.2685C13 73.1345 16.134 76.2685 20 76.2685H62C65.866 76.2685 69 73.1345 69 69.2685V17.5038L73 21.4199V69.2685C73 75.3436 68.0751 80.2685 62 80.2685H20L19.4336 80.2538C13.8093 79.9686 9.29993 75.4592 9.01465 69.8349L9 69.2685V11.2685C9 5.19336 13.9249 0.268494 20 0.268494H51.3945L55.4805 4.26849Z" fill="#D9D9D9"/>
<rect y="35.2684" width="58" height="32" rx="9" fill="#CE2F4C"/>
<path d="M20.328 47.8444C20.328 48.8204 20.104 49.7164 19.656 50.5324C19.208 51.3324 18.52 51.9804 17.592 52.4764C16.664 52.9724 15.512 53.2204 14.136 53.2204H11.592V59.2684H7.488V42.4204H14.136C15.48 42.4204 16.616 42.6524 17.544 43.1164C18.472 43.5804 19.168 44.2204 19.632 45.0364C20.096 45.8524 20.328 46.7884 20.328 47.8444ZM13.824 49.9564C14.608 49.9564 15.192 49.7724 15.576 49.4044C15.96 49.0364 16.152 48.5164 16.152 47.8444C16.152 47.1724 15.96 46.6524 15.576 46.2844C15.192 45.9164 14.608 45.7324 13.824 45.7324H11.592V49.9564H13.824ZM28.7766 42.4204C30.5526 42.4204 32.1046 42.7724 33.4326 43.4764C34.7606 44.1804 35.7846 45.1724 36.5046 46.4524C37.2406 47.7164 37.6086 49.1804 37.6086 50.8444C37.6086 52.4924 37.2406 53.9564 36.5046 55.2364C35.7846 56.5164 34.7526 57.5084 33.4086 58.2124C32.0806 58.9164 30.5366 59.2684 28.7766 59.2684H22.4646V42.4204H28.7766ZM28.5126 55.7164C30.0646 55.7164 31.2726 55.2924 32.1366 54.4444C33.0006 53.5964 33.4326 52.3964 33.4326 50.8444C33.4326 49.2924 33.0006 48.0844 32.1366 47.2204C31.2726 46.3564 30.0646 45.9244 28.5126 45.9244H26.5686V55.7164H28.5126ZM50.8701 42.4204V45.7084H44.0061V49.2604H49.1421V52.4524H44.0061V59.2684H39.9021V42.4204H50.8701Z" fill="white"/>
</g>
<defs>
<clipPath id="clip0_14_51">
<rect width="73" height="80" fill="white"/>
</clipPath>
</defs>
</svg>
