<svg width="416" height="319" viewBox="0 0 416 319" fill="none" xmlns="http://www.w3.org/2000/svg">
<rect x="1.5" y="1.5" width="396" height="316" rx="41.5" fill="url(#paint0_linear_16_124)" stroke="url(#paint1_linear_16_124)" stroke-width="3"/>
<mask id="path-2-inside-1_16_124" fill="white">
<path d="M154 25C155.18 25 156.349 25.0502 157.506 25.1436L157.5 25C192.92 25 206.334 53.7766 239.011 65H373C396.748 65 416 84.2518 416 108V276C416 299.748 396.748 319 373 319H43C19.2518 319 0 299.748 0 276V68C0 44.2518 19.2518 25 43 25H154Z"/>
</mask>
<path d="M154 25C155.18 25 156.349 25.0502 157.506 25.1436L157.5 25C192.92 25 206.334 53.7766 239.011 65H373C396.748 65 416 84.2518 416 108V276C416 299.748 396.748 319 373 319H43C19.2518 319 0 299.748 0 276V68C0 44.2518 19.2518 25 43 25H154Z" fill="url(#paint2_linear_16_124)"/>
<path d="M154 25L154 22H154V25ZM157.506 25.1436L157.265 28.1338L160.642 28.4063L160.503 25.0212L157.506 25.1436ZM157.5 25V22H154.375L154.502 25.1223L157.5 25ZM239.011 65L238.036 67.8373L238.51 68H239.011V65ZM43 25L43 22H43L43 25ZM154 25L154 28C155.095 28 156.184 28.0466 157.265 28.1338L157.506 25.1436L157.747 22.1533C156.515 22.0539 155.266 22 154 22L154 25ZM157.506 25.1436L160.503 25.0212L160.498 24.8777L157.5 25L154.502 25.1223L154.508 25.2659L157.506 25.1436ZM157.5 25V28C174.255 28 185.826 34.7451 197.524 43.2206C209.139 51.6365 221.152 62.0383 238.036 67.8373L239.011 65L239.985 62.1627C224.192 56.7382 213.16 47.14 201.044 38.3618C189.011 29.6432 176.164 22 157.5 22V25ZM239.011 65V68H373V65V62H239.011V65ZM373 65V68C395.091 68 413 85.9086 413 108H416H419C419 82.5949 398.405 62 373 62V65ZM416 108H413V276H416H419V108H416ZM416 276H413C413 298.091 395.091 316 373 316V319V322C398.405 322 419 301.405 419 276H416ZM373 319V316H43V319V322H373V319ZM43 319V316C20.9086 316 3 298.091 3 276H0H-3C-3 301.405 17.5949 322 43 322V319ZM0 276H3V68H0H-3V276H0ZM0 68H3C3 45.9086 20.9086 28 43 28L43 25L43 22C17.5949 22 -3 42.5949 -3 68H0ZM43 25V28H154V25V22H43V25Z" fill="url(#paint3_linear_16_124)" mask="url(#path-2-inside-1_16_124)"/>
<defs>
<linearGradient id="paint0_linear_16_124" x1="73.5" y1="160" x2="796" y2="154" gradientUnits="userSpaceOnUse">
<stop stop-color="#0086BE"/>
<stop offset="1" stop-color="#023E8A"/>
</linearGradient>
<linearGradient id="paint1_linear_16_124" x1="399" y1="159.5" x2="0" y2="159.5" gradientUnits="userSpaceOnUse">
<stop stop-color="#0188C0"/>
<stop offset="1" stop-color="#2AB8E8"/>
</linearGradient>
<linearGradient id="paint2_linear_16_124" x1="0" y1="172" x2="473" y2="172" gradientUnits="userSpaceOnUse">
<stop stop-color="#0096C7"/>
<stop offset="1" stop-color="#0077B6"/>
</linearGradient>
<linearGradient id="paint3_linear_16_124" x1="0" y1="172" x2="416" y2="172" gradientUnits="userSpaceOnUse">
<stop stop-color="#2AB8E8"/>
<stop offset="1" stop-color="#0186BF"/>
</linearGradient>
</defs>
</svg>
